<svg id="圖層_1" data-name="圖層 1" xmlns="http://www.w3.org/2000/svg" viewBox="0 0 33.71 43.99"><defs><style>.cls-1{fill:#292c3b;fill-rule:evenodd;}</style></defs><title>game-icon</title><path class="cls-1" d="M32.54,10.75,30.06,9.31l0-2.85A2.67,2.67,0,0,0,27.4,3.8H24.54L23.12,1.32a2.69,2.69,0,0,0-3.64-1L17,1.78,14.53.35a2.69,2.69,0,0,0-3.64,1L9.45,3.8H6.61A2.68,2.68,0,0,0,4,6.46l0,2.85L1.47,10.75a2.69,2.69,0,0,0-1,3.64l1.42,2.47L.49,19.33a2.68,2.68,0,0,0,1,3.63L3.94,24.4l0,2.85A2.64,2.64,0,0,0,6.61,29.9h.61L4,40l4.36,2.09L12.78,44l3.53-10.68,5.45,7.76,1.46,2.27,7.83-4.9-5.69-8.54h2A2.64,2.64,0,0,0,30,27.25l0-2.85L32.54,23a2.68,2.68,0,0,0,1-3.63l-1.42-2.47,1.42-2.47a2.69,2.69,0,0,0-1-3.64Zm-13.32,13h-3.3V12.9H12.75V10.57l6.46-1ZM17,4.39A11.84,11.84,0,1,1,5.17,16.25,11.87,11.87,0,0,1,17,4.39Z" transform="translate(-0.14 -0.01)"/></svg>