<svg id="圖層_1" data-name="圖層 1" xmlns="http://www.w3.org/2000/svg" viewBox="0 0 41 37.77"><defs><style>.cls-1{fill:#262938;fill-rule:evenodd;}</style></defs><title>money-icon2</title><path class="cls-1" d="M20.52,6.5A12.52,12.52,0,1,1,8,19,12.51,12.51,0,0,1,20.52,6.5ZM19.6,24V19.56A7.36,7.36,0,0,1,16,17.76a4.14,4.14,0,0,1-1.16-2.91,3.8,3.8,0,0,1,1.32-3,5.69,5.69,0,0,1,3.47-1.36v-1h1.84v1a5.91,5.91,0,0,1,3.23,1.16,4.52,4.52,0,0,1,1.52,2.55L23,14.61a2.29,2.29,0,0,0-1.52-1.72V17a9,9,0,0,1,4.15,1.8,3.72,3.72,0,0,1,1.12,2.83,4.32,4.32,0,0,1-1.4,3.23,6.65,6.65,0,0,1-3.87,1.64v2H19.6v-2A6.47,6.47,0,0,1,16,25.23,5.36,5.36,0,0,1,14.29,22l3.31-.32a3.48,3.48,0,0,0,.76,1.48A3.35,3.35,0,0,0,19.6,24Zm0-11.18a2.74,2.74,0,0,0-1.2.72,1.78,1.78,0,0,0-.4,1.16,1.73,1.73,0,0,0,.36,1,2.86,2.86,0,0,0,1.24.76Zm1.84,11.34A2.87,2.87,0,0,0,23,23.43a1.87,1.87,0,0,0,.6-1.4,1.52,1.52,0,0,0-.52-1.2,3,3,0,0,0-1.64-.8ZM20.52.12A18.91,18.91,0,0,1,38.84,14.49H41L40.16,16l-1,1.72h0l-1,1.76L37.29,21l-.84-1.48-1-1.76h0l-1-1.76-.84-1.48h1.68a15.44,15.44,0,0,0-29.82,1.2l-.16.8H1.76L2,15.29A18.87,18.87,0,0,1,20.52.12Zm-16,18.44,1,1.76h0l1,1.72.84,1.48H5.75a15.42,15.42,0,0,0,29.82-1.2l.16-.76h3.51L39,22.71a18.6,18.6,0,0,1-6.55,10.9,18.89,18.89,0,0,1-30.3-10.1H0L.84,22l1-1.72h0l1-1.76.84-1.48Z" transform="translate(0 -0.12)"/></svg>