<svg id="圖層_1" data-name="圖層 1" xmlns="http://www.w3.org/2000/svg" viewBox="0 0 30 30"><defs><style>.cls-1{fill:#282b3a;fill-rule:evenodd;}</style></defs><title>money-icon</title><path class="cls-1" d="M26.24,0H3.75L0,18.75H30ZM15.75,11.64a1.5,1.5,0,0,0-.27-.92,2.42,2.42,0,0,0-.92-.68,4.25,4.25,0,0,1-1.55-1,2.25,2.25,0,0,1-.52-1.56A2.38,2.38,0,0,1,13,6a2,2,0,0,1,1.35-.72V4h.76V5.26a1.92,1.92,0,0,1,1.32.82A3.13,3.13,0,0,1,16.9,7.9H15.72a2.57,2.57,0,0,0-.27-1.26.88.88,0,0,0-.77-.49.84.84,0,0,0-.76.38,1.66,1.66,0,0,0-.26,1,1.49,1.49,0,0,0,.26.91,2.74,2.74,0,0,0,1,.68,4.23,4.23,0,0,1,1.55,1,2.24,2.24,0,0,1,.5,1.55,2.24,2.24,0,0,1-.52,1.55,2.06,2.06,0,0,1-1.39.7V15h-.76V13.87a2.17,2.17,0,0,1-1.46-.73,2.74,2.74,0,0,1-.57-1.86h1.17a1.94,1.94,0,0,0,.35,1.3,1.08,1.08,0,0,0,.86.4,1,1,0,0,0,.85-.36,1.57,1.57,0,0,0,.3-1Zm8.62,5.23H5.63A3.71,3.71,0,0,0,3,13.32L4.56,5.45a3.52,3.52,0,0,0,1.07.18A3.75,3.75,0,0,0,9.37,1.87H20.62a3.76,3.76,0,0,0,3.75,3.76,3.54,3.54,0,0,0,1.05-.18L27,13.32a3.72,3.72,0,0,0-2.62,3.55ZM0,20.62H30v1.88H0Zm0,3.76H30v1.86H0Zm0,3.74H30V30H0Z" transform="translate(0)"/></svg>