<svg id="圖層_1" data-name="圖層 1" xmlns="http://www.w3.org/2000/svg" viewBox="0 0 29.36 30"><defs><style>.cls-1{fill:#272a39;fill-rule:evenodd;}</style></defs><title>user</title><path class="cls-1" d="M19.6,16.94h0v.43a37.18,37.18,0,0,0,3.9,1.84c3.92,1.55,5.94,2.47,5.94,9.42A1.26,1.26,0,0,1,28.35,30H1.41A1.32,1.32,0,0,1,.08,28.63c0-7.32,2.06-7.87,5.94-9.42,1.16-.56,2.43-.92,4.12-1.84v-.19a5.41,5.41,0,0,1-1.69-3.82c-.18,0-.18-.17-.38-.35a1.14,1.14,0,0,1-.19-.76v-.18a.68.68,0,0,1-.17-.54l-.18-.2A3.09,3.09,0,0,1,7.72,8.5a11.3,11.3,0,0,1,0-3.45,4.2,4.2,0,0,1,2.8-3.57,2.29,2.29,0,0,1,.91-.94A5.43,5.43,0,0,1,13.85,0a16.71,16.71,0,0,1,2.6.36c2.43.57,4.81,1.91,5.41,4a10.09,10.09,0,0,1,0,4c.91.76.36,2.22.18,3v.2a.69.69,0,0,0-.18.54l-.2.18c0,.39,0,.56-.22.76l-.18.35a7.73,7.73,0,0,1-1.65,3.58ZM17.2,18.11h0V16.4a1.64,1.64,0,0,1,.53-1.12c.77-.38,1-1.72,1.34-2.82,0-.21.18-.39.18-.56a.74.74,0,0,0,.17-.57l.18-.22v-.39l.2-.19a.58.58,0,0,1,.36-.18,1,1,0,0,1-.74-1.28s.55-2.86.18-4-2.05-2-3.71-2.39a7.38,7.38,0,0,0-2-.21c-.53,0-.91,0-1.09.21a1.61,1.61,0,0,1-1,.92A2.29,2.29,0,0,0,10,5.49a12.93,12.93,0,0,0,.37,3.58c.18.35,0,.71-.37,1.11a.17.17,0,0,1-.18.17c.18.18.18.58.36.76v.22c0,.2.19.39.19.57a.66.66,0,0,1,.18.56l.16.35c.39,1.16.56,2.27,1.13,2.66a1.69,1.69,0,0,1,.57,1.11v1.53a1.66,1.66,0,0,1-.57,1.11,24.14,24.14,0,0,1-5,2.27c-2.6.94-4.1,1.51-4.29,6H27c-.17-4.36-1.65-4.9-4.43-6a28.2,28.2,0,0,1-4.67-2.27,1.23,1.23,0,0,1-.72-1.11Z" transform="translate(-0.08)"/></svg>